<svg width="40" height="40" viewBox="0 0 40 40" fill="none" xmlns="http://www.w3.org/2000/svg">
<rect width="40" height="40" rx="8" fill="white"/>
<path fill-rule="evenodd" clip-rule="evenodd" d="M14.433 12.3522C14.433 13.6598 13.4487 14.7061 11.8683 14.7061H11.8393C10.3177 14.7061 9.33398 13.6598 9.33398 12.3522C9.33398 11.017 10.3477 10 11.8982 10C13.4487 10 14.4035 11.017 14.433 12.3522ZM14.134 16.5645V30.1825H9.60156V16.5645H14.134ZM30.4793 30.1826L30.4795 22.3744C30.4795 18.1915 28.2435 16.2448 25.2609 16.2448C22.8545 16.2448 21.7771 17.5665 21.1756 18.4938V16.5649H16.6426C16.7023 17.8427 16.6426 30.183 16.6426 30.183H21.1756V22.5775C21.1756 22.1705 21.205 21.7645 21.3248 21.4731C21.6524 20.66 22.3982 19.8182 23.6504 19.8182C25.2912 19.8182 25.947 21.0669 25.947 22.8969V30.1826H30.4793Z" fill="#17519B"/>
</svg>
