<svg width="40" height="40" viewBox="0 0 40 40" fill="none" xmlns="http://www.w3.org/2000/svg">
<rect width="40" height="40" rx="8" fill="white"/>
<rect width="40" height="40" rx="8" fill="white"/>
<mask id="mask0_263_1839" style="mask-type:luminance" maskUnits="userSpaceOnUse" x="0" y="0" width="40" height="40">
<path fill-rule="evenodd" clip-rule="evenodd" d="M0 20C0 8.9543 8.9543 0 20 0C31.0457 0 40 8.9543 40 20C40 31.0457 31.0457 40 20 40C8.9543 40 0 31.0457 0 20Z" fill="white"/>
</mask>
<g mask="url(#mask0_263_1839)">
<path fill-rule="evenodd" clip-rule="evenodd" d="M19.9997 9.33398C17.1028 9.33398 16.7392 9.34665 15.6014 9.39843C14.4659 9.45043 13.6907 9.63021 13.0125 9.89399C12.311 10.1664 11.7158 10.5309 11.1229 11.124C10.5296 11.7169 10.1652 12.312 9.89181 13.0134C9.62737 13.6918 9.44737 14.4671 9.39625 15.6023C9.34536 16.7401 9.33203 17.1038 9.33203 20.0008C9.33203 22.8977 9.34492 23.2601 9.39648 24.3979C9.4487 25.5335 9.62848 26.3086 9.89204 26.9868C10.1647 27.6884 10.5292 28.2835 11.1223 28.8764C11.7149 29.4697 12.3101 29.8351 13.0112 30.1075C13.6899 30.3713 14.4652 30.5511 15.6005 30.6031C16.7383 30.6549 17.1017 30.6675 19.9984 30.6675C22.8955 30.6675 23.258 30.6549 24.3957 30.6031C25.5313 30.5511 26.3073 30.3713 26.986 30.1075C27.6873 29.8351 28.2816 29.4697 28.8742 28.8764C29.4676 28.2835 29.832 27.6884 30.1054 26.9871C30.3676 26.3086 30.5476 25.5333 30.6009 24.3981C30.652 23.2604 30.6654 22.8977 30.6654 20.0008C30.6654 17.1038 30.652 16.7403 30.6009 15.6025C30.5476 14.4669 30.3676 13.6918 30.1054 13.0136C29.832 12.312 29.4676 11.7169 28.8742 11.124C28.2809 10.5307 27.6876 10.1662 26.9853 9.89399C26.3053 9.63021 25.5298 9.45043 24.3942 9.39843C23.2564 9.34665 22.8942 9.33398 19.9964 9.33398H19.9997ZM19.0415 11.2554C19.2273 11.2551 19.4272 11.2552 19.6429 11.2552L19.9984 11.2554C22.8465 11.2554 23.184 11.2656 24.3087 11.3167C25.3487 11.3642 25.9132 11.538 26.2892 11.684C26.787 11.8774 27.1418 12.1085 27.515 12.4818C27.8883 12.8551 28.1194 13.2107 28.3132 13.7085C28.4592 14.084 28.6332 14.6485 28.6805 15.6885C28.7316 16.813 28.7428 17.1507 28.7428 19.9974C28.7428 22.8441 28.7316 23.1819 28.6805 24.3064C28.633 25.3464 28.4592 25.9108 28.3132 26.2864C28.1199 26.7842 27.8883 27.1386 27.515 27.5117C27.1416 27.8851 26.7872 28.1162 26.2892 28.3095C25.9136 28.4562 25.3487 28.6295 24.3087 28.6771C23.1843 28.7282 22.8465 28.7393 19.9984 28.7393C17.1502 28.7393 16.8126 28.7282 15.6882 28.6771C14.6482 28.6291 14.0837 28.4553 13.7075 28.3093C13.2097 28.116 12.8541 27.8849 12.4808 27.5115C12.1075 27.1382 11.8764 26.7835 11.6826 26.2855C11.5366 25.91 11.3626 25.3455 11.3152 24.3055C11.2641 23.181 11.2539 22.8433 11.2539 19.9948C11.2539 17.1463 11.2641 16.8103 11.3152 15.6858C11.3628 14.6458 11.5366 14.0814 11.6826 13.7054C11.8759 13.2076 12.1075 12.852 12.4808 12.4787C12.8541 12.1054 13.2097 11.8742 13.7075 11.6805C14.0835 11.5338 14.6482 11.3605 15.6882 11.3127C16.6722 11.2682 17.0535 11.2549 19.0415 11.2527V11.2554ZM24.4141 14.3061C24.4141 13.5992 24.9874 13.0266 25.6941 13.0266V13.0261C26.4007 13.0261 26.9741 13.5995 26.9741 14.3061C26.9741 15.0128 26.4007 15.5861 25.6941 15.5861C24.9874 15.5861 24.4141 15.0128 24.4141 14.3061ZM19.9991 14.5222C16.9741 14.5223 14.5215 16.975 14.5215 20.0001C14.5215 23.0252 16.9742 25.4768 19.9993 25.4768C23.0245 25.4768 25.4763 23.0252 25.4763 20.0001C25.4763 16.9749 23.0242 14.5222 19.9991 14.5222ZM23.5565 20.0009C23.5565 18.0371 21.9645 16.4453 20.0009 16.4453C18.0371 16.4453 16.4453 18.0371 16.4453 20.0009C16.4453 21.9645 18.0371 23.5565 20.0009 23.5565C21.9645 23.5565 23.5565 21.9645 23.5565 20.0009Z" fill="#17519B"/>
</g>
</svg>
