<svg width="76" height="78" viewBox="0 0 76 78" fill="none" xmlns="http://www.w3.org/2000/svg">
<g opacity="0.4" filter="url(#filter0_b_0_1)">
<ellipse cx="37.6302" cy="39" rx="37.6302" ry="39" fill="#5082C0"/>
<path d="M74.7604 39C74.7604 60.28 58.12 77.5 37.6302 77.5C17.1405 77.5 0.5 60.28 0.5 39C0.5 17.72 17.1405 0.5 37.6302 0.5C58.12 0.5 74.7604 17.72 74.7604 39Z" stroke="#B3B3B3" stroke-opacity="0.9"/>
</g>
<path d="M39.6515 34.06C41.8595 34.42 43.5515 35.248 44.7275 36.544C45.9035 37.816 46.4915 39.4 46.4915 41.296C46.4915 42.76 46.1075 44.116 45.3395 45.364C44.5715 46.588 43.3955 47.572 41.8115 48.316C40.2515 49.06 38.3315 49.432 36.0515 49.432C34.2755 49.432 32.5235 49.204 30.7955 48.748C29.0915 48.268 27.6395 47.596 26.4395 46.732L28.7075 42.268C29.6675 42.988 30.7715 43.552 32.0195 43.96C33.2915 44.344 34.5875 44.536 35.9075 44.536C37.3715 44.536 38.5235 44.26 39.3635 43.708C40.2035 43.132 40.6235 42.328 40.6235 41.296C40.6235 39.232 39.0515 38.2 35.9075 38.2H33.2435V34.348L38.4275 28.48H27.6995V23.8H45.3395V27.58L39.6515 34.06Z" fill="white"/>
<defs>
<filter id="filter0_b_0_1" x="-200" y="-200" width="475.26" height="478" filterUnits="userSpaceOnUse" color-interpolation-filters="sRGB">
<feFlood flood-opacity="0" result="BackgroundImageFix"/>
<feGaussianBlur in="BackgroundImageFix" stdDeviation="100"/>
<feComposite in2="SourceAlpha" operator="in" result="effect1_backgroundBlur_0_1"/>
<feBlend mode="normal" in="SourceGraphic" in2="effect1_backgroundBlur_0_1" result="shape"/>
</filter>
</defs>
</svg>
