<svg width="76" height="78" viewBox="0 0 76 78" fill="none" xmlns="http://www.w3.org/2000/svg">
<g opacity="0.45" filter="url(#filter0_b_0_1)">
<ellipse cx="37.6302" cy="39" rx="37.6302" ry="39" fill="#5082C0"/>
<path d="M74.7604 39C74.7604 60.28 58.12 77.5 37.6302 77.5C17.1405 77.5 0.5 60.28 0.5 39C0.5 17.72 17.1405 0.5 37.6302 0.5C58.12 0.5 74.7604 17.72 74.7604 39Z" stroke="#B3B3B3"/>
</g>
<path d="M36.4667 37.268C40.0187 37.268 42.6347 37.976 44.3147 39.392C46.0187 40.808 46.8707 42.704 46.8707 45.08C46.8707 46.616 46.4867 48.02 45.7187 49.292C44.9507 50.54 43.7747 51.548 42.1907 52.316C40.6307 53.06 38.6987 53.432 36.3947 53.432C34.6187 53.432 32.8667 53.204 31.1387 52.748C29.4347 52.268 27.9827 51.596 26.7827 50.732L29.0867 46.268C30.0467 46.988 31.1507 47.552 32.3987 47.96C33.6467 48.344 34.9307 48.536 36.2507 48.536C37.7147 48.536 38.8667 48.248 39.7067 47.672C40.5467 47.096 40.9667 46.292 40.9667 45.26C40.9667 44.18 40.5227 43.364 39.6347 42.812C38.7707 42.26 37.2587 41.984 35.0987 41.984H28.6547L29.9507 27.8H45.3227V32.48H34.8107L34.4147 37.268H36.4667Z" fill="white"/>
<defs>
<filter id="filter0_b_0_1" x="-200" y="-200" width="475.26" height="478" filterUnits="userSpaceOnUse" color-interpolation-filters="sRGB">
<feFlood flood-opacity="0" result="BackgroundImageFix"/>
<feGaussianBlur in="BackgroundImageFix" stdDeviation="100"/>
<feComposite in2="SourceAlpha" operator="in" result="effect1_backgroundBlur_0_1"/>
<feBlend mode="normal" in="SourceGraphic" in2="effect1_backgroundBlur_0_1" result="shape"/>
</filter>
</defs>
</svg>
