<svg width="76" height="78" viewBox="0 0 76 78" fill="none" xmlns="http://www.w3.org/2000/svg">
<g opacity="0.45" filter="url(#filter0_b_0_1)">
<ellipse cx="37.6302" cy="39" rx="37.6302" ry="39" fill="#5082C0"/>
<path d="M74.7604 39C74.7604 60.28 58.12 77.5 37.6302 77.5C17.1405 77.5 0.5 60.28 0.5 39C0.5 17.72 17.1405 0.5 37.6302 0.5C58.12 0.5 74.7604 17.72 74.7604 39Z" stroke="#B3B3B3"/>
</g>
<path d="M39.2029 34.196C40.8109 34.196 42.2749 34.52 43.5949 35.168C44.9149 35.816 45.9589 36.74 46.7269 37.94C47.4949 39.116 47.8789 40.484 47.8789 42.044C47.8789 43.724 47.4589 45.2 46.6189 46.472C45.7789 47.744 44.6269 48.728 43.1629 49.424C41.7229 50.096 40.1149 50.432 38.3389 50.432C34.8109 50.432 32.0509 49.352 30.0589 47.192C28.0669 45.032 27.0709 41.948 27.0709 37.94C27.0709 35.084 27.6109 32.636 28.6909 30.596C29.7709 28.556 31.2709 27.008 33.1909 25.952C35.1349 24.896 37.3789 24.368 39.9229 24.368C41.2669 24.368 42.5509 24.524 43.7749 24.836C45.0229 25.124 46.0789 25.544 46.9429 26.096L44.7829 30.38C43.5349 29.54 41.9629 29.12 40.0669 29.12C37.9309 29.12 36.2389 29.744 34.9909 30.992C33.7429 32.24 33.0709 34.052 32.9749 36.428C34.4629 34.94 36.5389 34.196 39.2029 34.196ZM38.0149 46.076C39.2629 46.076 40.2709 45.74 41.0389 45.068C41.8309 44.396 42.2269 43.484 42.2269 42.332C42.2269 41.18 41.8309 40.268 41.0389 39.596C40.2709 38.9 39.2389 38.552 37.9429 38.552C36.6709 38.552 35.6269 38.912 34.8109 39.632C33.9949 40.328 33.5869 41.228 33.5869 42.332C33.5869 43.436 33.9829 44.336 34.7749 45.032C35.5669 45.728 36.6469 46.076 38.0149 46.076Z" fill="white"/>
<defs>
<filter id="filter0_b_0_1" x="-200" y="-200" width="475.26" height="478" filterUnits="userSpaceOnUse" color-interpolation-filters="sRGB">
<feFlood flood-opacity="0" result="BackgroundImageFix"/>
<feGaussianBlur in="BackgroundImageFix" stdDeviation="100"/>
<feComposite in2="SourceAlpha" operator="in" result="effect1_backgroundBlur_0_1"/>
<feBlend mode="normal" in="SourceGraphic" in2="effect1_backgroundBlur_0_1" result="shape"/>
</filter>
</defs>
</svg>
