<svg width="76" height="78" viewBox="0 0 76 78" fill="none" xmlns="http://www.w3.org/2000/svg">
<g opacity="0.45" filter="url(#filter0_b_0_1)">
<ellipse cx="37.6302" cy="39" rx="37.6302" ry="39" fill="#5082C0"/>
<path d="M74.7604 39C74.7604 60.28 58.12 77.5 37.6302 77.5C17.1405 77.5 0.5 60.28 0.5 39C0.5 17.72 17.1405 0.5 37.6302 0.5C58.12 0.5 74.7604 17.72 74.7604 39Z" stroke="#B3B3B3" stroke-opacity="0.9"/>
</g>
<path d="M43.893 34.752C45.141 35.376 46.089 36.192 46.737 37.2C47.409 38.208 47.745 39.372 47.745 40.692C47.745 42.252 47.301 43.62 46.413 44.796C45.525 45.948 44.277 46.848 42.669 47.496C41.061 48.12 39.201 48.432 37.089 48.432C34.977 48.432 33.117 48.12 31.509 47.496C29.925 46.848 28.689 45.948 27.801 44.796C26.937 43.62 26.505 42.252 26.505 40.692C26.505 39.372 26.829 38.208 27.477 37.2C28.149 36.192 29.097 35.376 30.321 34.752C29.385 34.176 28.665 33.456 28.161 32.592C27.657 31.704 27.405 30.696 27.405 29.568C27.405 28.104 27.813 26.832 28.629 25.752C29.445 24.672 30.585 23.844 32.049 23.268C33.513 22.668 35.193 22.368 37.089 22.368C39.009 22.368 40.701 22.668 42.165 23.268C43.653 23.844 44.805 24.672 45.621 25.752C46.437 26.832 46.845 28.104 46.845 29.568C46.845 30.696 46.593 31.704 46.089 32.592C45.585 33.456 44.853 34.176 43.893 34.752ZM37.089 26.652C35.913 26.652 34.965 26.94 34.245 27.516C33.549 28.068 33.201 28.836 33.201 29.82C33.201 30.78 33.549 31.536 34.245 32.088C34.941 32.64 35.889 32.916 37.089 32.916C38.289 32.916 39.249 32.64 39.969 32.088C40.689 31.536 41.049 30.78 41.049 29.82C41.049 28.836 40.689 28.068 39.969 27.516C39.249 26.94 38.289 26.652 37.089 26.652ZM37.089 44.148C38.553 44.148 39.705 43.824 40.545 43.176C41.409 42.504 41.841 41.616 41.841 40.512C41.841 39.408 41.409 38.532 40.545 37.884C39.705 37.236 38.553 36.912 37.089 36.912C35.649 36.912 34.509 37.236 33.669 37.884C32.829 38.532 32.409 39.408 32.409 40.512C32.409 41.64 32.829 42.528 33.669 43.176C34.509 43.824 35.649 44.148 37.089 44.148Z" fill="white"/>
<defs>
<filter id="filter0_b_0_1" x="-200" y="-200" width="475.26" height="478" filterUnits="userSpaceOnUse" color-interpolation-filters="sRGB">
<feFlood flood-opacity="0" result="BackgroundImageFix"/>
<feGaussianBlur in="BackgroundImageFix" stdDeviation="100"/>
<feComposite in2="SourceAlpha" operator="in" result="effect1_backgroundBlur_0_1"/>
<feBlend mode="normal" in="SourceGraphic" in2="effect1_backgroundBlur_0_1" result="shape"/>
</filter>
</defs>
</svg>
