<svg width="40" height="41" viewBox="0 0 40 41" fill="none" xmlns="http://www.w3.org/2000/svg">
<rect y="0.5" width="40" height="40" rx="8" fill="white"/>
<path fill-rule="evenodd" clip-rule="evenodd" d="M14.4325 12.8522C14.4325 14.1598 13.4482 15.2061 11.8678 15.2061H11.8389C10.3172 15.2061 9.3335 14.1598 9.3335 12.8522C9.3335 11.517 10.3472 10.5 11.8977 10.5C13.4482 10.5 14.403 11.517 14.4325 12.8522ZM14.1338 17.0645V30.6825H9.60136V17.0645H14.1338ZM30.4794 30.6827L30.4796 22.8745C30.4796 18.6916 28.2436 16.7448 25.2611 16.7448C22.8546 16.7448 21.7772 18.0666 21.1757 18.9938V17.0649H16.6427C16.7024 18.3428 16.6427 30.683 16.6427 30.683H21.1757V23.0776C21.1757 22.6706 21.2051 22.2646 21.3249 21.9732C21.6525 21.1601 22.3984 20.3182 23.6505 20.3182C25.2913 20.3182 25.9472 21.567 25.9472 23.397V30.6827H30.4794Z" fill="#17519B"/>
</svg>
