<svg width="40" height="41" viewBox="0 0 40 41" fill="none" xmlns="http://www.w3.org/2000/svg">
<rect y="0.5" width="40" height="40" rx="8" fill="white"/>
<rect y="0.5" width="40" height="40" rx="8" fill="white"/>
<mask id="mask0_201_177" style="mask-type:luminance" maskUnits="userSpaceOnUse" x="0" y="0" width="40" height="41">
<path fill-rule="evenodd" clip-rule="evenodd" d="M0 20.5C0 9.4543 8.9543 0.5 20 0.5C31.0457 0.5 40 9.4543 40 20.5C40 31.5457 31.0457 40.5 20 40.5C8.9543 40.5 0 31.5457 0 20.5Z" fill="white"/>
</mask>
<g mask="url(#mask0_201_177)">
<path fill-rule="evenodd" clip-rule="evenodd" d="M20.0012 9.83398C17.1042 9.83398 16.7407 9.84665 15.6029 9.89843C14.4673 9.95043 13.6922 10.1302 13.014 10.394C12.3124 10.6664 11.7173 11.0309 11.1244 11.624C10.5311 12.2169 10.1666 12.812 9.89328 13.5134C9.62883 14.1918 9.44883 14.9671 9.39772 16.1023C9.34683 17.2401 9.3335 17.6038 9.3335 20.5008C9.3335 23.3977 9.34639 23.7601 9.39794 24.8979C9.45016 26.0335 9.62994 26.8086 9.8935 27.4868C10.1662 28.1884 10.5306 28.7835 11.1237 29.3764C11.7164 29.9697 12.3115 30.3351 13.0126 30.6075C13.6913 30.8713 14.4667 31.0511 15.602 31.1031C16.7398 31.1549 17.1031 31.1675 19.9998 31.1675C22.897 31.1675 23.2594 31.1549 24.3972 31.1031C25.5328 31.0511 26.3088 30.8713 26.9875 30.6075C27.6888 30.3351 28.283 29.9697 28.8757 29.3764C29.469 28.7835 29.8335 28.1884 30.1068 27.4871C30.3691 26.8086 30.5491 26.0333 30.6024 24.8981C30.6535 23.7604 30.6668 23.3977 30.6668 20.5008C30.6668 17.6038 30.6535 17.2403 30.6024 16.1025C30.5491 14.9669 30.3691 14.1918 30.1068 13.5136C29.8335 12.812 29.469 12.2169 28.8757 11.624C28.2824 11.0307 27.689 10.6662 26.9868 10.394C26.3068 10.1302 25.5312 9.95043 24.3957 9.89843C23.2579 9.84665 22.8956 9.83398 19.9978 9.83398H20.0012ZM19.0443 11.7553C19.2301 11.755 19.43 11.7551 19.6457 11.7552L20.0012 11.7553C22.8492 11.7553 23.1868 11.7655 24.3114 11.8166C25.3514 11.8642 25.9159 12.0379 26.2919 12.1839C26.7897 12.3773 27.1446 12.6084 27.5177 12.9817C27.891 13.3551 28.1221 13.7106 28.3159 14.2084C28.4619 14.584 28.6359 15.1484 28.6833 16.1884C28.7344 17.3129 28.7455 17.6507 28.7455 20.4974C28.7455 23.3441 28.7344 23.6818 28.6833 24.8063C28.6357 25.8463 28.4619 26.4108 28.3159 26.7863C28.1226 27.2841 27.891 27.6385 27.5177 28.0117C27.1444 28.385 26.7899 28.6161 26.2919 28.8094C25.9163 28.9561 25.3514 29.1295 24.3114 29.177C23.187 29.2281 22.8492 29.2392 20.0012 29.2392C17.1529 29.2392 16.8154 29.2281 15.6909 29.177C14.6509 29.129 14.0864 28.9552 13.7102 28.8092C13.2124 28.6159 12.8569 28.3848 12.4835 28.0114C12.1102 27.6381 11.8791 27.2834 11.6853 26.7854C11.5393 26.4099 11.3653 25.8454 11.318 24.8054C11.2669 23.681 11.2566 23.3432 11.2566 20.4947C11.2566 17.6462 11.2669 17.3102 11.318 16.1858C11.3655 15.1458 11.5393 14.5813 11.6853 14.2053C11.8786 13.7075 12.1102 13.352 12.4835 12.9786C12.8569 12.6053 13.2124 12.3742 13.7102 12.1804C14.0862 12.0337 14.6509 11.8604 15.6909 11.8126C16.6749 11.7682 17.0562 11.7548 19.0443 11.7526V11.7553ZM24.415 14.8061C24.415 14.0992 24.9883 13.5265 25.695 13.5265V13.526C26.4017 13.526 26.975 14.0994 26.975 14.8061C26.975 15.5127 26.4017 16.0861 25.695 16.0861C24.9883 16.0861 24.415 15.5127 24.415 14.8061ZM20.0008 15.0221C16.9758 15.0223 14.5232 17.4749 14.5232 20.5C14.5232 23.5251 16.9759 25.9767 20.0011 25.9767C23.0262 25.9767 25.478 23.5251 25.478 20.5C25.478 17.4748 23.026 15.0221 20.0008 15.0221ZM23.5566 20.5009C23.5566 18.5371 21.9646 16.9453 20.001 16.9453C18.0372 16.9453 16.4454 18.5371 16.4454 20.5009C16.4454 22.4645 18.0372 24.0565 20.001 24.0565C21.9646 24.0565 23.5566 22.4645 23.5566 20.5009Z" fill="#17519B"/>
</g>
</svg>
