<svg width="40" height="41" viewBox="0 0 40 41" fill="none" xmlns="http://www.w3.org/2000/svg">
<rect y="0.5" width="40" height="40" rx="8" fill="white"/>
<path d="M22.0848 24.3848V13.5153H25.0885L25.4865 9.76966H22.0848L22.0899 7.89492C22.0899 6.91799 22.1828 6.39453 23.5875 6.39453H25.4652V2.64844H22.4612C18.8528 2.64844 17.5827 4.46549 17.5827 7.5212V9.77009H15.3335V13.5158H17.5827V24.3848H22.0848Z" fill="#0EA5C6"/>
<rect y="0.5" width="40" height="40" rx="8" fill="white"/>
<path d="M22.0848 32.2596V21.3785H25.0884L25.4865 17.6288H22.0848L22.0899 15.7521C22.0899 14.7741 22.1828 14.2501 23.5875 14.2501H25.4652V10.5H22.4612C18.8528 10.5 17.5827 12.319 17.5827 15.378V17.6293H15.3335V21.3789H17.5827V32.2596H22.0848Z" fill="#17519B"/>
</svg>
