<svg width="37" height="31" viewBox="0 0 37 31" fill="none" xmlns="http://www.w3.org/2000/svg">
<path d="M11.88 15.456C13.288 16.032 14.376 16.96 15.144 18.24C15.976 19.456 16.392 20.928 16.392 22.656C16.392 24.96 15.656 26.848 14.184 28.32C12.712 29.792 10.888 30.528 8.712 30.528C6.408 30.528 4.52 29.792 3.048 28.32C1.576 26.848 0.84 24.96 0.84 22.656C0.84 21.504 0.968 20.384 1.224 19.296C1.544 18.208 2.12 16.576 2.952 14.4L8.04 0.767996H15.72L11.88 15.456ZM32.232 15.456C33.64 16.032 34.728 16.96 35.496 18.24C36.328 19.456 36.744 20.928 36.744 22.656C36.744 24.96 36.008 26.848 34.536 28.32C33.064 29.792 31.24 30.528 29.064 30.528C26.76 30.528 24.872 29.792 23.4 28.32C21.928 26.848 21.192 24.96 21.192 22.656C21.192 21.504 21.32 20.384 21.576 19.296C21.896 18.208 22.472 16.576 23.304 14.4L28.392 0.767996H36.072L32.232 15.456Z" fill="black"/>
</svg>
