<svg width="37" height="31" viewBox="0 0 37 31" fill="none" xmlns="http://www.w3.org/2000/svg">
<path d="M25.12 15.544C23.712 14.968 22.624 14.04 21.856 12.76C21.024 11.544 20.608 10.072 20.608 8.344C20.608 6.04 21.344 4.152 22.816 2.68C24.288 1.208 26.112 0.472001 28.288 0.472001C30.592 0.472001 32.48 1.208 33.952 2.68C35.424 4.152 36.16 6.04 36.16 8.344C36.16 9.496 36.032 10.616 35.776 11.704C35.456 12.792 34.88 14.424 34.048 16.6L28.96 30.232L21.28 30.232L25.12 15.544ZM4.768 15.544C3.36 14.968 2.272 14.04 1.504 12.76C0.671997 11.544 0.255997 10.072 0.255997 8.344C0.255997 6.04 0.991997 4.152 2.464 2.68C3.936 1.208 5.76 0.472001 7.936 0.472001C10.24 0.472001 12.128 1.208 13.6 2.68C15.072 4.152 15.808 6.04 15.808 8.344C15.808 9.496 15.68 10.616 15.424 11.704C15.104 12.792 14.528 14.424 13.696 16.6L8.608 30.232L0.927999 30.232L4.768 15.544Z" fill="black"/>
</svg>
